<svg xmlns="http://www.w3.org/2000/svg" viewBox="0 0 800 500">
  <defs>
    <linearGradient id="serviceBg" x1="0" y1="0" x2="1" y2="1"><stop stop-color="#10141b"/><stop offset="1" stop-color="#2d151f"/></linearGradient>
    <linearGradient id="serviceAccent" x1="0" y1="0" x2="1" y2="1"><stop stop-color="#df5362"/><stop offset="1" stop-color="#7e2033"/></linearGradient>
  </defs>
  <rect width="800" height="500" fill="url(#serviceBg)"/>
  <circle cx="600" cy="230" r="160" fill="#8f3044" opacity="0.15"/>
  <rect x="214" y="118" width="372" height="264" rx="30" fill="#202631" stroke="#4b5565" stroke-width="8"/>
  <rect x="247" y="151" width="306" height="53" rx="16" fill="url(#serviceAccent)"/>
  <circle cx="282" cy="177" r="16" fill="#12161d" opacity="0.78"/>
  <rect x="317" y="168" width="132" height="17" rx="8" fill="#ffffff" opacity="0.9"/>
  <path d="M280 250h54l27-28 50 59 35-39h75" fill="none" stroke="#d9dee7" stroke-width="13" stroke-linecap="round" stroke-linejoin="round"/>
  <rect x="247" y="320" width="91" height="27" rx="12" fill="#2f3743"/>
  <rect x="354" y="320" width="91" height="27" rx="12" fill="#2f3743"/>
  <rect x="461" y="320" width="92" height="27" rx="12" fill="#2f3743"/>
  <path d="M495 160c12 12 21 25 21 40 0 18-10 32-21 41-12-9-21-23-21-41 0-15 9-28 21-40Z" fill="#f1a1aa"/>
</svg>
